<?xml version="1.0" encoding="utf-8"?>
<!-- Generator: Adobe Illustrator 25.3.1, SVG Export Plug-In . SVG Version: 6.00 Build 0)  -->
<svg version="1.1" id="Layer_1" xmlns="http://www.w3.org/2000/svg" xmlns:xlink="http://www.w3.org/1999/xlink" x="0px" y="0px"
	 viewBox="352 0 382 335" xml:space="preserve">
<style type="text/css">
	.st0{fill:#231F20;}
</style>
<g>
	<g>
		<path class="st0" d="M435.7,298.43l-19.61-43.46c-1.78-3.94-7.37-3.93-9.13,0.02l-19.37,43.46c-1.47,3.31,0.95,7.04,4.57,7.04
			h38.97C434.77,305.5,437.2,301.75,435.7,298.43L435.7,298.43z"/>
		<path class="st0" d="M585.04,39.83l81.36,180.3c1.78,3.94,7.37,3.92,9.13-0.02l20.4-45.77c1.67-3.74,1.66-8.02-0.03-11.75
			L638.67,35.99c-1.24-2.74-3.96-4.49-6.96-4.49h-41.29C586.13,31.5,583.27,35.92,585.04,39.83L585.04,39.83z"/>
		<path class="st0" d="M435.38,201.45L480.3,301c1.24,2.74,3.96,4.5,6.97,4.5h37.24c4.29,0,7.15-4.43,5.38-8.33l-41.1-90.94
			c-1.46-3.23-1.47-6.94-0.02-10.18l9.68-21.71c1.67-3.74,1.66-8.02-0.03-11.75L441.18,35.99c-1.24-2.74-3.96-4.49-6.96-4.49h-41.43
			c-4.29,0-7.15,4.43-5.38,8.33l55.83,123.54c1.46,3.23,1.47,6.93,0.03,10.17l-7.9,17.73C433.91,194.52,433.92,198.22,435.38,201.45
			L435.38,201.45z"/>
		<path class="st0" d="M640.19,301.32l8.39-18.56c0.92-2.03,0.92-4.35,0-6.38L539.86,35.99c-1.24-2.73-3.96-4.49-6.96-4.49h-41.43
			c-4.29,0-7.14,4.43-5.38,8.33l118.09,261.11c1.25,2.77,4.01,4.55,7.05,4.55h22.49C636.51,305.5,639.04,303.86,640.19,301.32
			L640.19,301.32z"/>
	</g>
</g>
</svg>
