<?xml version="1.0" standalone="no"?>
<!DOCTYPE svg PUBLIC "-//W3C//DTD SVG 20010904//EN"
 "http://www.w3.org/TR/2001/REC-SVG-20010904/DTD/svg10.dtd">
<svg version="1.0" xmlns="http://www.w3.org/2000/svg"
 width="764.000000pt" height="764.000000pt" viewBox="0 0 764.000000 764.000000"
 preserveAspectRatio="xMidYMid meet">
<metadata>
Created by potrace 1.14, written by Peter Selinger 2001-2017
</metadata>
<g transform="translate(0.000000,764.000000) scale(0.100000,-0.100000)"
fill="#000000" stroke="none">
<path d="M1138 6545 c-2 -2 -84 -5 -183 -5 -195 -2 -212 -6 -241 -61 -21 -41
-17 -80 15 -151 52 -115 73 -162 107 -236 19 -40 34 -74 34 -76 0 -4 39 -89
111 -244 16 -34 29 -64 29 -66 0 -2 17 -42 39 -88 36 -78 49 -108 107 -235 13
-29 36 -79 50 -110 14 -32 46 -103 71 -158 25 -55 56 -125 70 -155 14 -30 34
-74 44 -97 11 -24 29 -64 41 -90 12 -27 22 -50 22 -53 1 -3 21 -45 44 -93 23
-49 42 -91 42 -94 0 -4 16 -40 89 -196 23 -49 41 -90 41 -92 0 -2 23 -51 50
-110 28 -59 50 -108 50 -110 0 -1 12 -29 27 -61 15 -33 28 -62 29 -66 1 -5 2
-9 4 -10 21 -27 16 -147 -8 -197 -12 -25 -22 -51 -22 -58 0 -7 -4 -13 -9 -13
-5 0 -12 -11 -15 -25 -4 -14 -21 -56 -38 -93 -17 -37 -32 -69 -33 -72 0 -3
-11 -27 -23 -55 -45 -99 -47 -160 -6 -250 9 -22 18 -42 19 -45 0 -3 14 -32 29
-65 16 -33 45 -98 66 -145 21 -47 49 -109 64 -139 14 -30 26 -61 26 -68 0 -7
5 -13 12 -13 6 0 9 -3 6 -6 -3 -3 13 -47 37 -97 39 -85 62 -134 103 -227 8
-19 30 -66 47 -105 38 -81 50 -108 138 -305 36 -80 77 -172 92 -205 47 -104
72 -158 95 -210 12 -27 33 -72 45 -100 13 -27 37 -81 55 -120 61 -134 70 -152
93 -173 12 -11 35 -25 50 -31 36 -14 805 -15 840 -2 72 28 91 98 52 187 -15
32 -33 73 -40 89 -7 17 -28 62 -45 100 -18 39 -43 93 -55 120 -13 28 -44 97
-70 154 -69 155 -85 190 -118 261 -16 36 -37 83 -47 105 -10 22 -29 66 -44 97
-56 124 -140 309 -191 423 -14 33 -36 80 -48 105 -11 25 -21 47 -22 50 -1 3
-11 26 -23 53 -12 26 -32 68 -43 95 -12 26 -35 76 -51 112 -49 107 -45 163 23
308 22 46 39 86 39 87 0 2 17 41 39 87 33 72 50 110 56 128 1 3 9 21 18 42 48
106 42 173 -29 323 -18 39 -44 95 -57 125 -14 30 -66 147 -117 260 -51 113
-101 225 -112 250 -11 25 -24 53 -29 62 -5 10 -49 106 -98 215 -49 109 -101
224 -115 256 -14 31 -38 83 -52 115 -14 31 -67 147 -116 257 -50 110 -108 238
-130 285 -22 47 -41 90 -42 95 -1 6 -19 46 -40 90 -35 73 -60 127 -89 195 -5
14 -10 28 -9 33 1 4 -2 7 -8 7 -5 0 -10 4 -10 10 0 5 -11 34 -25 65 -14 30
-25 56 -24 57 4 5 -52 102 -69 122 -33 37 -73 45 -233 45 -301 1 -363 2 -369
6 -4 3 -9 3 -12 0z"/>
<path d="M2807 6538 c-5 -3 -15 -4 -22 -2 -17 7 -61 -12 -85 -36 -29 -29 -33
-104 -8 -148 10 -17 18 -34 18 -37 0 -3 11 -29 24 -57 13 -29 34 -75 46 -103
12 -27 33 -72 46 -99 13 -28 24 -56 24 -63 0 -7 5 -13 10 -13 6 0 10 -7 10
-15 0 -8 18 -52 39 -97 21 -46 50 -108 64 -138 13 -30 37 -82 52 -115 35 -76
64 -144 65 -150 0 -2 14 -31 29 -62 16 -32 38 -78 49 -103 11 -25 52 -117 92
-205 40 -88 83 -185 97 -215 13 -30 35 -77 48 -105 12 -27 33 -72 45 -100 41
-91 62 -139 90 -200 27 -58 117 -258 145 -320 7 -16 25 -55 39 -86 14 -31 26
-61 26 -66 0 -6 7 -16 15 -23 9 -7 13 -15 10 -18 -2 -3 4 -21 14 -41 11 -20
29 -58 41 -86 13 -27 33 -72 45 -100 13 -27 33 -72 45 -100 12 -27 36 -79 52
-115 17 -36 37 -81 45 -100 9 -19 33 -72 54 -117 22 -46 39 -85 39 -87 0 -2
15 -37 34 -78 19 -40 45 -98 59 -128 14 -30 36 -80 50 -110 14 -30 57 -127 97
-215 39 -88 83 -185 97 -215 14 -30 45 -100 70 -155 25 -55 56 -125 70 -155
28 -62 155 -341 186 -410 11 -25 37 -83 58 -128 22 -46 39 -86 39 -88 0 -2 19
-46 43 -96 24 -51 67 -145 95 -208 77 -171 63 -164 376 -168 138 -2 265 -1
282 3 55 10 79 39 138 165 166 360 163 341 86 505 -53 112 -73 156 -74 165 -1
3 -13 30 -27 60 -15 30 -34 71 -42 90 -9 19 -34 75 -56 123 -23 49 -41 90 -41
92 0 3 -66 149 -100 220 -11 22 -59 130 -108 240 -50 110 -103 229 -120 265
-16 36 -70 155 -120 265 -49 110 -102 226 -116 257 -15 32 -27 61 -28 65 -1 5
-19 43 -40 85 -21 43 -38 80 -38 83 0 2 -20 48 -45 101 -25 53 -45 97 -45 99
0 2 -15 36 -34 77 -43 92 -83 182 -106 233 -10 22 -29 66 -44 98 -29 63 -34
74 -166 367 -51 113 -110 243 -131 288 -22 46 -39 86 -39 87 0 2 -18 43 -41
92 -22 48 -50 108 -61 133 -29 67 -52 115 -97 213 -23 49 -41 90 -41 93 0 2
-18 43 -40 90 -22 47 -40 92 -40 99 0 7 -4 15 -9 17 -4 2 -30 52 -56 113 -26
60 -66 150 -90 200 -23 50 -48 108 -56 128 -7 20 -17 37 -21 37 -4 0 -8 7 -8
15 0 9 -18 50 -39 93 -55 108 -80 122 -231 122 -47 0 -134 1 -195 1 -60 0
-135 0 -165 0 -76 -1 -244 0 -308 2 -30 1 -59 -1 -65 -5z"/>
<path d="M4855 6540 c-74 -3 -139 -10 -151 -17 -42 -24 -67 -110 -45 -151 11
-18 46 -96 141 -307 5 -11 27 -60 50 -108 22 -49 40 -90 40 -92 0 -2 18 -43
41 -92 22 -48 50 -108 61 -133 11 -25 30 -67 43 -95 52 -114 94 -208 100 -225
6 -18 59 -131 75 -161 11 -20 17 -39 13 -43 -3 -3 -1 -6 5 -6 7 0 12 -5 12
-12 0 -6 14 -41 31 -77 17 -36 37 -79 44 -96 20 -48 55 -125 83 -185 14 -30
27 -57 27 -60 2 -5 3 -7 113 -250 38 -85 81 -180 95 -210 14 -30 37 -82 52
-115 15 -33 35 -78 45 -100 25 -58 57 -128 101 -223 22 -46 39 -85 39 -87 0
-3 23 -54 135 -300 15 -33 44 -98 65 -145 21 -47 52 -116 70 -155 18 -38 57
-126 87 -195 30 -69 60 -128 66 -132 7 -4 8 -8 3 -8 -5 0 4 -11 20 -25 34 -30
88 -33 121 -7 17 13 113 198 113 217 0 2 12 30 26 62 15 32 35 76 45 98 9 22
34 75 53 118 20 43 36 80 36 83 0 2 20 47 45 100 25 52 45 101 45 108 0 8 7
19 15 26 8 7 15 18 15 25 0 7 13 41 30 77 36 76 48 139 39 193 -11 63 -8 55
-66 183 -9 20 -17 39 -18 42 -1 3 -16 37 -34 75 -18 39 -60 131 -93 205 -33
74 -64 140 -69 146 -5 6 -6 14 -2 17 3 4 0 7 -7 7 -7 0 -11 3 -8 6 3 3 -9 37
-28 75 -19 38 -34 72 -34 74 0 3 -20 48 -45 101 -25 52 -45 97 -45 99 0 4 -62
140 -93 205 -12 25 -22 47 -22 50 0 3 -10 25 -22 50 -30 62 -78 168 -124 272
-21 48 -42 95 -48 105 -5 10 -16 34 -24 53 -18 40 -193 430 -227 505 -13 28
-33 73 -46 100 -12 28 -36 79 -52 115 -16 36 -39 85 -50 110 -23 51 -54 84
-94 99 -16 6 -117 10 -235 10 -292 1 -416 2 -422 4 -3 1 -64 0 -136 -3z"/>
<path d="M1156 2123 c-36 -9 -40 -15 -126 -208 -10 -22 -66 -148 -125 -280
-58 -132 -114 -258 -124 -280 -10 -22 -29 -65 -41 -95 -13 -30 -27 -60 -31
-65 -16 -22 0 -80 31 -107 l30 -28 429 3 429 2 25 25 c26 26 37 66 24 88 -5 6
-6 12 -3 12 4 0 -30 81 -113 263 -11 26 -31 68 -42 95 -37 81 -80 175 -97 212
-9 19 -17 37 -18 40 -1 6 -24 56 -78 173 -20 42 -36 81 -36 85 0 5 -14 23 -31
40 -31 31 -55 37 -103 25z"/>
</g>
</svg>
